PathFileType	4	(X/Y/Z)	C:/Users/opensim2020/Desktop/walking_exp_matlab/subject06_walking18_straight_02.trc	
DataRate	CameraRate	NumFrames	NumMarkers	Units	OrigDataRate	OrigDataStartFrame	OrigNumFrames	
100.00	100.00	8	47	mm	100.00	2537	326	
Frame#	Time	LFHD			RFHD			LBHD			RBHD			C7			T10			CLAV			STRN			RBAK			LSHO			LUPA			LELB			LFRM			LWRA			LWRB			LFIN			RSHO			RUPA			RELB			RFRM			RWRA			RWRB			RFIN			LASI			RASI			LPSI			RPSI			LTHI			LKNE			LTIB			LANK			LHEE			LTOE			RTHI			RKNE			RTIB			RANK			RHEE			RTOE			*39			*40			*41			*42			*43			*44			*45			*46			
		X1	Y1	Z1	X2	Y2	Z2	X3	Y3	Z3	X4	Y4	Z4	X5	Y5	Z5	X6	Y6	Z6	X7	Y7	Z7	X8	Y8	Z8	X9	Y9	Z9	X10	Y10	Z10	X11	Y11	Z11	X12	Y12	Z12	X13	Y13	Z13	X14	Y14	Z14	X15	Y15	Z15	X16	Y16	Z16	X17	Y17	Z17	X18	Y18	Z18	X19	Y19	Z19	X20	Y20	Z20	X21	Y21	Z21	X22	Y22	Z22	X23	Y23	Z23	X24	Y24	Z24	X25	Y25	Z25	X26	Y26	Z26	X27	Y27	Z27	X28	Y28	Z28	X29	Y29	Z29	X30	Y30	Z30	X31	Y31	Z31	X32	Y32	Z32	X33	Y33	Z33	X34	Y34	Z34	X35	Y35	Z35	X36	Y36	Z36	X37	Y37	Z37	X38	Y38	Z38	X39	Y39	Z39	X40	Y40	Z40	X41	Y41	Z41	X42	Y42	Z42	X43	Y43	Z43	X44	Y44	Z44	X45	Y45	Z45	X46	Y46	Z46	X47	Y47	Z47	

286	2.850	-922.75659	-466.50995	1654.32629	-1054.39160	-468.89343	1647.54590	-926.45251	-333.39352	1600.14343	-1056.09668	-337.49136	1598.54053	-989.82751	-332.00214	1443.32202	-1012.76776	-307.02466	1113.73047	-992.77277	-443.01215	1368.10950	-997.24042	-485.28568	1192.61499	-1080.69983	-263.36716	1275.72229	-830.07996	-384.68149	1388.91199	-767.02716	-362.42090	1185.73560	-758.43103	-345.11716	1075.04590	-730.38989	-355.39346	925.98071	-756.08710	-418.30273	808.19897	-733.28418	-350.47125	806.31287	-722.65424	-386.70770	723.67657	-1152.43372	-399.62836	1408.92871	-1247.56079	-377.05307	1211.00500	-1258.75537	-395.55542	1089.47437	-1272.60046	-426.04788	972.82074	-1232.92188	-498.86536	842.14911	-1279.10315	-450.37442	837.63098	-1277.41321	-497.32394	767.20880	-906.83087	-497.30676	962.11340	-1126.63123	-482.86993	959.14337	-926.54211	-337.46231	985.95221	-1094.45886	-334.93848	983.95001	-836.41394	-462.14844	650.06506	-859.13391	-486.38962	489.37024	-864.76343	-498.12787	233.13367	-907.54688	-526.65204	63.00719	-958.19006	-493.49075	45.89741	-908.99292	-673.63263	41.42235	-1173.15979	-393.50168	621.90912	-1155.15100	-378.19949	495.56552	-1155.70532	-205.94466	288.88864	-1121.68018	-87.33724	141.45453	-1081.46130	-37.95501	143.61452	-1096.77954	-191.99995	31.63668	-982.37445	-367.59879	1694.64819																					 
287	2.860	-920.90619	-472.90491	1655.23584	-1052.54138	-475.25314	1648.76355	-924.59686	-339.97839	1600.65479	-1054.27893	-343.95935	1599.34363	-988.21332	-339.33932	1444.06128	-1010.58655	-314.62155	1114.40320	-991.21027	-450.30444	1369.04419	-995.61133	-492.89407	1193.63672	-1079.08960	-270.82751	1276.44995	-828.57660	-392.00858	1390.00354	-765.35010	-370.84598	1186.68237	-756.72577	-354.42407	1075.79431	-728.62573	-366.27359	926.96088	-755.54321	-429.86804	809.70209	-731.84668	-362.63724	807.22388	-721.73932	-399.60947	724.82220	-1150.75708	-406.88144	1409.81995	-1246.48694	-384.21887	1212.14551	-1257.31189	-401.81476	1090.45544	-1271.34778	-431.59799	973.63837	-1232.00964	-503.69601	842.48285	-1278.05005	-455.06635	838.23010	-1276.34839	-501.55450	767.40082	-905.29266	-505.03586	962.78174	-1124.87378	-490.12225	960.09479	-924.54968	-345.25903	986.87274	-1092.34412	-342.32123	984.70404	-835.47656	-468.50964	650.40009	-858.09949	-491.23196	489.30243	-864.93707	-500.52060	232.99002	-908.09369	-527.48462	63.03941	-958.65009	-494.09296	46.21690	-909.08478	-674.22321	40.53656	-1172.45776	-402.92923	622.70654	-1155.26160	-389.17880	495.88675	-1155.04016	-213.93675	292.16238	-1121.16895	-92.89269	146.79912	-1080.24805	-44.72807	150.48859	-1096.68628	-193.11737	32.18903	-980.37720	-373.85461	1695.33154																					 
288	2.870	-919.05054	-479.31815	1655.98389	-1050.65173	-481.65039	1649.79053	-922.89514	-346.54044	1600.96497	-1052.59045	-350.49445	1599.83350	-986.74780	-346.64383	1444.58887	-1008.46857	-321.94183	1115.09485	-989.70624	-457.52762	1369.79236	-994.01459	-500.39191	1194.45569	-1077.23645	-278.31143	1276.80225	-826.97546	-399.34985	1390.95068	-763.59686	-379.31995	1187.52332	-755.09961	-363.59729	1076.54297	-727.43921	-377.19589	927.62274	-754.55182	-442.00558	811.23132	-730.14862	-374.91772	808.22540	-720.78821	-412.84531	725.96143	-1149.14563	-413.92905	1410.47998	-1245.21399	-391.56448	1213.03174	-1255.86499	-408.23303	1091.29224	-1270.11572	-437.27274	974.25452	-1230.99780	-508.72086	842.64368	-1276.83301	-459.79907	838.55853	-1275.24963	-505.94806	767.49017	-903.77057	-512.59283	963.22229	-1123.39099	-497.37717	961.02759	-922.50916	-353.14737	987.54004	-1090.20825	-349.31442	985.45319	-834.75806	-474.43240	650.53375	-857.05585	-495.98492	489.17389	-865.04456	-502.90500	232.79872	-908.63324	-528.32776	62.99495	-959.13782	-494.65234	46.54592	-909.27405	-674.77118	39.68718	-1172.26990	-412.25119	623.25983	-1155.68921	-400.58832	496.05969	-1154.43530	-222.40540	295.51709	-1120.69861	-98.83979	152.45471	-1079.03760	-51.47527	157.67789	-1096.83850	-194.41257	33.07986	-978.46912	-380.09079	1695.92358																					 
289	2.880	-917.34625	-485.62943	1656.66357	-1048.91797	-487.95694	1650.75232	-921.28894	-353.08145	1601.12695	-1050.92236	-357.11612	1600.30640	-985.04254	-353.91333	1445.14001	-1006.16315	-329.31302	1115.54065	-988.19031	-464.75720	1370.40552	-992.40759	-507.83014	1195.12866	-1075.38000	-285.30252	1277.10754	-825.43054	-406.73703	1391.78455	-761.85059	-387.76947	1188.21204	-753.27502	-373.00098	1077.05981	-725.73535	-388.18567	928.38385	-753.51971	-454.53024	812.79010	-728.88922	-387.36813	808.95538	-719.85602	-426.40820	727.07513	-1147.52832	-420.93939	1410.86353	-1243.93982	-398.72986	1213.65063	-1254.39575	-414.60870	1091.80066	-1268.94678	-443.04370	974.68018	-1229.94189	-513.73480	842.60071	-1275.97021	-464.98660	838.86078	-1274.17200	-510.50925	767.36102	-902.24457	-520.00085	963.50085	-1121.76489	-504.34665	961.86255	-920.25745	-360.32431	988.04639	-1088.05640	-356.03070	985.89020	-833.92456	-480.55212	650.59753	-856.03473	-500.67477	489.02103	-864.99878	-505.23962	232.68970	-909.12280	-529.11414	63.02181	-959.56421	-495.12927	46.83467	-909.72699	-675.23315	38.99196	-1171.58521	-422.38242	623.49890	-1156.20886	-412.28857	496.14447	-1154.00916	-231.39537	298.90640	-1120.21936	-105.11504	158.38914	-1078.23462	-58.68834	165.31364	-1096.64526	-195.91101	34.41253	-976.67725	-386.27844	1696.30054																					 
290	2.890	-915.62329	-491.94925	1657.27417	-1047.32703	-494.32315	1651.58911	-919.64886	-359.72330	1601.12061	-1049.49268	-363.69757	1600.45496	-983.41895	-360.96100	1445.43542	-1003.89362	-336.43204	1115.87048	-986.69281	-471.88824	1370.89697	-990.82971	-515.04041	1195.62244	-1073.14600	-292.64478	1277.29468	-823.92682	-414.28491	1392.47668	-760.05334	-396.30515	1188.73474	-751.55334	-382.29489	1077.41431	-724.46063	-399.40732	928.74933	-752.73022	-466.68542	814.11469	-727.57593	-400.09387	809.45642	-718.96674	-440.03992	728.15643	-1145.94324	-427.93411	1411.07507	-1242.51050	-405.52081	1213.99438	-1253.03052	-420.99258	1092.13464	-1267.76038	-448.82483	974.87610	-1228.91089	-518.76788	842.38336	-1274.98975	-470.17291	838.96765	-1273.05823	-515.23138	767.09412	-900.71887	-527.28674	963.70575	-1120.33276	-511.00797	962.54651	-918.22919	-367.45816	988.43451	-1085.96045	-362.61771	986.19006	-833.13892	-486.71503	650.84204	-854.98199	-505.40216	488.93701	-864.82062	-507.80115	232.62669	-909.53168	-530.03674	62.98838	-959.27521	-495.13159	47.39213	-910.16656	-675.96265	38.43509	-1171.60425	-431.92801	623.83923	-1156.77319	-424.39774	496.17438	-1153.62415	-241.16039	302.31540	-1119.71960	-111.96507	164.58397	-1077.44995	-66.55762	173.38669	-1096.61768	-198.00145	36.16309	-974.95862	-392.40295	1696.56250																					 
291	2.900	-914.10223	-498.21582	1657.92468	-1045.76807	-500.66623	1652.34717	-918.17194	-366.23248	1601.00061	-1048.01904	-370.32132	1600.41614	-981.95032	-368.24487	1445.99524	-1001.71509	-343.31277	1116.21155	-985.24884	-479.03082	1371.29663	-989.25964	-522.11475	1195.95239	-1071.06494	-299.44431	1277.52930	-822.23767	-421.89380	1393.07471	-758.24341	-404.92291	1189.15234	-749.73096	-391.69650	1077.70496	-722.95221	-410.61829	929.20990	-751.77130	-479.34665	815.51178	-726.37708	-412.86905	809.93073	-717.88867	-454.14709	729.15082	-1144.45020	-434.82544	1411.16736	-1241.07239	-412.21533	1214.05396	-1251.68604	-427.28842	1092.19189	-1266.58374	-454.60602	974.84314	-1227.80054	-523.85602	841.98944	-1274.01184	-475.35568	838.84290	-1272.01465	-520.14447	766.80554	-899.26379	-534.44147	963.93658	-1119.00623	-517.51349	963.06165	-916.33173	-374.51035	988.68878	-1084.13538	-369.01660	986.35272	-832.31195	-492.92047	651.16772	-853.97681	-510.04007	488.90125	-864.33093	-510.44193	232.60445	-909.77759	-530.76428	62.89192	-959.36462	-495.47629	47.62822	-910.52191	-676.55536	38.01625	-1171.27991	-442.09933	623.97296	-1157.34363	-436.76523	496.15460	-1153.32031	-251.67664	305.50037	-1119.14331	-120.00403	170.72868	-1076.42493	-75.22855	181.14064	-1096.25964	-201.07751	38.10312	-973.27618	-398.46133	1696.77612																					 
292	2.910	-912.64166	-504.57346	1658.43005	-1044.33557	-506.99414	1653.00610	-916.80457	-372.73572	1600.92017	-1046.54663	-376.95361	1600.36719	-980.43195	-375.23480	1446.33728	-999.53156	-350.23956	1116.45813	-983.82910	-486.00424	1371.57690	-987.72015	-528.96680	1196.16418	-1068.75781	-306.27957	1277.71130	-820.67444	-429.55334	1393.52576	-756.46906	-413.55295	1189.43909	-748.00537	-400.95242	1077.82227	-721.46808	-422.04718	929.52356	-750.83405	-492.14856	816.88336	-725.34888	-425.94702	810.20062	-716.79950	-468.28403	730.20453	-1143.01868	-441.58124	1411.01648	-1239.62329	-418.76480	1213.93042	-1250.34692	-433.47772	1092.08386	-1265.37244	-460.34979	974.68860	-1226.67712	-528.94781	841.50604	-1273.11499	-480.57056	838.64056	-1270.96753	-525.11096	766.42542	-897.85620	-541.45892	964.22388	-1117.77405	-523.89502	963.58429	-914.66870	-381.42328	988.87756	-1082.40723	-375.36710	986.35468	-831.49860	-498.98883	651.53259	-852.90625	-514.75604	489.00287	-863.66803	-512.99292	232.54947	-909.89661	-531.31982	62.89667	-959.37158	-495.76859	47.82272	-910.64307	-676.95294	37.66631	-1171.00708	-452.30554	624.09851	-1157.90259	-449.43396	496.16788	-1153.08813	-263.01608	308.44107	-1118.61047	-128.60416	176.63756	-1075.69409	-84.56016	188.81010	-1096.25391	-203.80443	40.39870	-971.82013	-404.58676	1696.81763																					 
293	2.920	-911.29150	-510.90674	1658.91650	-1042.98206	-513.34344	1653.54150	-915.47662	-379.41672	1600.79431	-1045.22949	-383.57721	1600.39075	-978.69739	-382.25153	1446.79846	-997.53729	-356.84433	1116.76819	-982.44434	-492.98639	1371.81763	-986.24121	-535.63312	1196.32227	-1066.74426	-312.68558	1277.95703	-819.04962	-437.30945	1393.97559	-754.65735	-422.34604	1189.64185	-746.06757	-410.74387	1077.89648	-719.64075	-433.52844	929.96057	-750.03058	-505.01160	818.27124	-723.75244	-439.25461	810.65527	-715.75055	-482.82974	731.30975	-1141.63049	-448.22876	1410.85156	-1237.97424	-424.78137	1213.67896	-1249.03613	-439.47321	1091.93787	-1264.14587	-466.02878	974.42450	-1225.55371	-534.04773	840.98444	-1271.97070	-485.55804	838.28564	-1270.05725	-530.02136	766.03198	-896.50128	-548.38837	964.55450	-1116.62427	-530.17932	963.98462	-913.14575	-388.06522	989.07214	-1080.88464	-381.53421	986.33014	-830.69733	-504.82224	651.90033	-851.84131	-519.31665	489.09952	-862.80341	-515.31659	232.50154	-909.85962	-531.50232	62.91463	-959.30072	-495.93661	47.93725	-910.79425	-677.21509	37.32354	-1170.74414	-462.64709	624.22784	-1158.18896	-462.41327	496.22784	-1152.88391	-274.92245	311.16257	-1118.23804	-137.84007	182.38704	-1074.85559	-94.84982	196.35081	-1095.93713	-207.63512	42.66322	-970.48450	-410.78983	1696.90796																					 
